<?xml version="1.0" encoding="UTF-8"?>
<svg width="240px" height="30px" viewBox="0 0 240 30" version="1.1" xmlns="http://www.w3.org/2000/svg" xmlns:xlink="http://www.w3.org/1999/xlink">
    <title>logo-仿真探测</title>
    <g id="仿真探测" stroke="none" stroke-width="1" fill="none" fill-rule="evenodd">
        <g id="探测用例管理1" transform="translate(-20.000000, -10.000000)">
            <g id="logo-仿真探测" transform="translate(20.000000, 10.000000)">
                <rect id="矩形" fill="#FFFFFF" opacity="0" x="0" y="0" width="240" height="30"></rect>
                <path d="M41.686,23.638 C46.204,22.486 49.912,20.146 51.46,15.466 L50.056,14.836 L49.696,14.908 L47.554,14.908 C47.842,14.53 48.094,14.17 48.328,13.774 L46.762,13.468 C48.454,12.37 49.822,10.912 50.668,8.986 L49.282,8.302 L48.922,8.374 L46.474,8.374 C46.798,7.996 47.104,7.6 47.392,7.222 L45.232,6.754 C44.368,8.014 42.802,9.418 40.624,10.444 C41.092,10.75 41.74,11.434 42.046,11.92 C43.036,11.362 43.9,10.786 44.656,10.138 L47.644,10.138 C47.212,10.696 46.69,11.182 46.078,11.632 C45.628,11.29 45.088,10.966 44.62,10.714 L43.054,11.722 C43.504,11.992 43.972,12.352 44.386,12.676 C43.306,13.216 42.1,13.648 40.858,13.936 C41.236,14.332 41.722,15.052 41.956,15.556 C43.288,15.196 44.566,14.692 45.736,14.08 C44.764,15.448 43.18,16.834 40.948,17.824 C41.398,18.166 42.01,18.886 42.262,19.354 C43.774,18.58 44.998,17.662 46.006,16.69 L48.67,16.69 C48.256,17.464 47.716,18.13 47.104,18.742 C46.618,18.382 46.06,18.022 45.592,17.752 L43.954,18.832 C44.476,19.138 45.088,19.552 45.556,19.966 C44.116,20.902 42.406,21.55 40.588,21.928 C40.966,22.36 41.47,23.116 41.686,23.638 Z M39.202,23.566 L39.202,16.366 C39.616,17.068 40.012,17.806 40.21,18.292 L41.38,16.582 C41.074,16.168 39.706,14.62 39.202,14.134 L39.202,13.828 L41.218,13.828 L41.218,11.83 L39.202,11.83 L39.202,9.256 C39.94,9.058 40.642,8.842 41.29,8.59 L40.066,6.844 C38.716,7.456 36.7,7.978 34.846,8.302 C35.08,8.77 35.368,9.472 35.44,9.958 C36.016,9.886 36.592,9.778 37.204,9.67 L37.204,11.83 L34.648,11.83 L34.648,13.828 L36.646,13.828 C36.124,15.556 35.26,17.5 34.396,18.652 C34.702,19.192 35.188,20.092 35.368,20.704 C36.052,19.696 36.664,18.256 37.204,16.726 L37.204,23.566 L39.202,23.566 Z M61.576,23.548 C64.114,21.028 64.87,17.212 65.122,12.694 L66.976,12.694 C66.814,18.328 66.634,20.488 66.238,20.992 C66.058,21.244 65.878,21.298 65.572,21.298 L65.3284929,21.2975672 C64.9101653,21.2956198 64.2661818,21.2849091 63.574,21.226 C63.934,21.82 64.168,22.702 64.204,23.314 C65.14,23.35 66.058,23.35 66.616,23.26 C67.264,23.134 67.678,22.954 68.11,22.324 C68.704,21.496 68.902,18.868 69.082,11.614 C69.082,11.344 69.1,10.642 69.1,10.642 L65.194,10.642 C65.212,9.49 65.23,8.302 65.23,7.078 L63.106,7.078 C63.106,8.302 63.106,9.508 63.088,10.642 L61.072,10.642 L61.072,12.694 L63.016,12.694 C62.89,15.538 62.494,18.022 61.45,19.984 C61.126,18.724 60.406,16.834 59.776,15.376 L58.066,15.844 C58.336,16.528 58.606,17.302 58.876,18.076 L55.816,18.778 C56.41,17.392 56.95,15.772 57.328,14.242 L60.856,14.242 L60.856,12.298 L52.918,12.298 L52.918,14.242 L55.132,14.242 C54.736,16.15 54.106,17.968 53.872,18.508 C53.584,19.156 53.332,19.57 52.99,19.696 C53.224,20.218 53.566,21.19 53.674,21.604 C54.196,21.28 54.97,21.01 59.416,19.858 C59.506,20.164 59.578,20.452 59.632,20.704 L61.342,20.182 C60.964,20.794 60.514,21.388 59.992,21.91 C60.514,22.252 61.234,23.008 61.576,23.548 Z M60.532,10.03 L60.532,8.14 L53.494,8.14 L53.494,10.03 L60.532,10.03 Z M72.628,22 L73.564,18.58 L77.884,18.58 L78.82,22 L81.61,22 L77.326,8.68 L74.194,8.68 L69.928,22 L72.628,22 Z M77.308,16.51 L74.14,16.51 L74.536,15.052 C74.932,13.666 75.328,12.154 75.67,10.696 L75.742,10.696 C76.138,12.136 76.498,13.666 76.912,15.052 L77.308,16.51 Z M85.84,22 L85.84,17.266 L87.622,17.266 C90.484,17.266 92.77,15.898 92.77,12.856 C92.77,9.706 90.502,8.68 87.55,8.68 L83.176,8.68 L83.176,22 L85.84,22 Z M87.442,15.16 L85.84,15.16 L85.84,10.786 L87.352,10.786 C89.188,10.786 90.16,11.308 90.16,12.856 C90.16,14.386 89.278,15.16 87.442,15.16 Z M97.846,22 L97.846,17.266 L99.628,17.266 C102.49,17.266 104.776,15.898 104.776,12.856 C104.776,9.706 102.508,8.68 99.556,8.68 L95.182,8.68 L95.182,22 L97.846,22 Z M99.448,15.16 L97.846,15.16 L97.846,10.786 L99.358,10.786 C101.194,10.786 102.166,11.308 102.166,12.856 C102.166,14.386 101.284,15.16 99.448,15.16 Z M111.958,23.584 C114.586,21.676 115.63,18.922 116.08,15.808 L119.662,15.808 C119.518,19.372 119.284,20.848 118.906,21.226 C118.726,21.442 118.546,21.496 118.222,21.478 L117.955503,21.4774591 C117.497983,21.4750248 116.795091,21.4616364 116.044,21.388 C116.404,21.946 116.692,22.774 116.71,23.368 C117.7,23.404 118.672,23.404 119.248,23.314 C119.914,23.242 120.4,23.08 120.832,22.54 C121.444,21.856 121.696,19.84 121.93,14.692 C121.948,14.422 121.966,13.81 121.966,13.81 L116.296,13.81 C116.35,13.18 116.386,12.568 116.404,11.938 L122.938,11.938 L122.938,9.832 L116.962,9.832 L118.78,9.328 C118.618,8.644 118.204,7.474 117.88,6.646 L115.738,7.15 C116.008,7.996 116.35,9.094 116.494,9.832 L111.382,9.832 L111.382,11.938 L114.082,11.938 C113.956,16.024 113.65,19.786 110.41,22.054 C110.95,22.414 111.634,23.08 111.958,23.584 Z M110.23,23.53 L110.23,11.236 C110.896,9.994 111.508,8.662 111.994,7.366 L109.942,6.718 C109.06,9.274 107.53,11.83 105.928,13.45 C106.306,13.99 106.918,15.196 107.116,15.718 C107.458,15.34 107.8,14.926 108.142,14.494 L108.142,23.53 L110.23,23.53 Z M125.926,23.584 C127.708,23.152 129.94,22.288 131.362,21.424 L129.688,20.254 L134.944,20.254 L133.792,21.442 C135.772,22.036 137.788,22.918 138.976,23.566 L140.758,22.126 C139.57,21.55 137.626,20.812 135.79,20.254 L140.56,20.254 L140.56,18.49 L138.238,18.49 L138.238,10.57 L133.342,10.57 C133.396,10.318 133.432,10.048 133.504,9.76 L140.128,9.76 L140.128,7.978 L133.846,7.978 L134.026,6.934 L131.776,6.718 C131.758,7.096 131.704,7.528 131.668,7.978 L125.044,7.978 L125.044,9.76 L131.416,9.76 C131.362,10.048 131.308,10.318 131.254,10.57 L126.952,10.57 L126.952,18.49 L124.558,18.49 L124.558,20.254 L129.472,20.254 C128.32,20.956 126.214,21.73 124.468,22.126 C124.936,22.522 125.584,23.17 125.926,23.584 Z M136.078,12.676 L129.022,12.676 L129.022,11.902 L136.078,11.902 L136.078,12.676 Z M136.078,14.566 L129.022,14.566 L129.022,13.882 L136.078,13.882 L136.078,14.566 Z M136.078,16.456 L129.022,16.456 L129.022,15.754 L136.078,15.754 L136.078,16.456 Z M136.078,18.49 L129.022,18.49 L129.022,17.662 L136.078,17.662 L136.078,18.49 Z M142.99,23.422 C144.16,23.422 144.952,23.368 145.492,23.026 C146.05,22.72 146.23,22.216 146.23,21.262 L146.23,16.798 C146.824,16.6 147.382,16.42 147.958,16.222 L147.58,14.296 L146.23,14.71 L146.23,12.136 L147.688,12.136 L147.688,10.156 L146.23,10.156 L146.23,6.754 L144.25,6.754 L144.25,10.156 L142.396,10.156 L142.396,12.136 L144.25,12.136 L144.25,15.34 C143.458,15.574 142.738,15.772 142.144,15.934 L142.702,17.986 L144.25,17.464 L144.25,21.28 C144.25,21.514 144.16,21.568 143.944,21.568 C143.728,21.586 143.08,21.586 142.432,21.55 C142.684,22.09 142.936,22.918 142.99,23.422 Z M149.866,11.254 L149.866,9.4 L156.58,9.4 L156.58,11.146 L158.398,11.146 L158.398,7.582 L148.138,7.582 L148.138,11.254 L149.866,11.254 Z M156.85,14.764 L158.506,13.612 C157.804,12.586 156.31,11.092 155.104,10.03 L153.556,11.074 C154.78,12.172 156.22,13.756 156.85,14.764 Z M149.272,14.944 C150.568,13.972 152.008,12.388 152.89,10.84 L151,10.192 C150.28,11.434 149.038,12.658 147.814,13.432 C148.246,13.792 148.984,14.566 149.272,14.944 Z M154.276,23.368 L154.276,18.814 C155.212,20.272 156.4,21.586 157.624,22.432 C157.948,21.91 158.578,21.154 159.046,20.776 C157.66,20.038 156.274,18.76 155.356,17.392 L158.506,17.392 L158.506,15.484 L154.276,15.484 L154.276,13.702 L152.242,13.702 L152.242,15.484 L148.102,15.484 L148.102,17.392 L151.162,17.392 C150.172,18.886 148.678,20.218 147.04,20.92 C147.472,21.316 148.066,22.072 148.354,22.54 C149.848,21.748 151.198,20.416 152.242,18.85 L152.242,23.368 L154.276,23.368 Z M163.744,10.39 L165.04,8.662 C164.356,8.14 162.988,7.366 162.052,6.898 L160.792,8.464 C161.764,9.004 163.114,9.85 163.744,10.39 Z M175.678,23.152 C176.254,22.864 176.434,22.378 176.434,21.406 L176.434,7.042 L174.76,7.042 L174.76,21.406 C174.76,21.676 174.652,21.766 174.382,21.766 C174.112,21.766 173.266,21.784 172.402,21.748 C172.618,22.252 172.87,23.026 172.942,23.494 C174.238,23.512 175.12,23.44 175.678,23.152 Z M166.66,19.462 L166.66,9.22 L169.774,9.22 L169.774,19.354 L171.448,19.354 L171.448,7.708 L165.058,7.708 L165.058,19.462 L166.66,19.462 Z M173.914,19.426 L173.914,8.41 L172.294,8.41 L172.294,19.426 L173.914,19.426 Z M165.22,23.566 C166.84,22.828 167.794,21.784 168.316,20.632 C169.108,21.496 170.026,22.684 170.458,23.422 L171.826,22.576 C171.34,21.802 170.35,20.65 169.522,19.786 L168.388,20.47 C168.856,19.372 168.964,18.202 168.964,17.104 L168.964,10.21 L167.416,10.21 L167.416,17.068 C167.416,19.066 167.128,20.992 164.302,22.27 C164.572,22.522 165.058,23.206 165.22,23.566 Z M163.042,15.106 L164.302,13.396 C163.618,12.892 162.25,12.154 161.314,11.704 L160.108,13.252 C161.062,13.774 162.394,14.584 163.042,15.106 Z M162.358,23.368 C163.078,21.604 163.852,19.534 164.446,17.608 L162.718,16.492 C162.016,18.598 161.08,20.866 160.414,22.27 L162.358,23.368 Z" id="移动APP仿真探测" fill="#2A2E37" fill-rule="nonzero"></path>
                <g id="图形logo" transform="translate(-0.000000, 2.000000)">
                    <path d="M12.9435588,16.3455882 C11.0958383,16.3455882 9.5979706,14.8477206 9.5979706,13 C9.5979706,11.1522794 11.0958383,9.65441176 12.9435588,9.65441176 C14.7912794,9.65441176 16.2891471,11.1522794 16.2891471,13 C16.2891471,14.8477206 14.7912794,16.3455882 12.9435588,16.3455882 Z" id="形状结合" fill="#F29D2C"></path>
                    <path d="M18.2609412,6.11583088 C18.4608162,6.27049265 18.7475809,6.23808824 18.9120883,6.04633824 L21.0930294,3.50550735 C21.2688162,3.30066176 21.2415735,2.98942647 21.0303235,2.82138235 C18.8105735,1.05548529 16.0004706,1.24344979e-14 12.9435588,1.24344979e-14 C6.18088237,1.24344979e-14 0.624816192,5.16377206 0.00215442682,11.7634706 C-0.0242279261,12.0425882 0.198397074,12.2830882 0.47866178,12.2830882 L3.84527943,12.2830882 C4.08663972,12.2830882 4.28785296,12.1027132 4.31911031,11.8633603 C4.87600737,7.59649265 8.52480149,4.30147059 12.9435588,4.30147059 C14.946228,4.30147059 16.7906985,4.97852206 18.2609412,6.11583088 Z" id="Fill-17" fill="#42B5E8"></path>
                    <path d="M25.9372412,13.3932787 C25.9429566,13.1252493 25.7271184,12.9044404 25.459089,12.9044404 L24.0317655,12.9044404 L21.6406258,12.9044404 L18.9784934,12.9044404 C18.5660302,12.9044404 18.3472287,13.3916537 18.6211846,13.6999257 L20.9729419,16.3456169 L20.9749493,16.3456169 C19.6640522,19.489036 16.5620228,21.6985581 12.9435302,21.6985581 C8.52477281,21.6985581 4.87597869,18.403536 4.31908163,14.1365728 C4.28791987,13.8972199 4.08670663,13.7169404 3.84534634,13.7169404 L0.478728692,13.7169404 C0.198368397,13.7169404 -0.0242566026,13.9573449 0.00212575035,14.2364625 C0.624883103,20.836161 6.18094928,26.0000287 12.9435302,26.0000287 C19.9562655,26.0000287 25.6721552,20.4473081 25.9341625,13.4987125 C25.935214,13.4696537 25.9362655,13.4334257 25.9372412,13.3932787" id="Fill-19" fill="#4B6EEF"></path>
                </g>
            </g>
        </g>
    </g>
</svg>