<?xml version="1.0" encoding="UTF-8"?>
<svg width="28px" height="28px" viewBox="0 0 28 28" version="1.1" xmlns="http://www.w3.org/2000/svg" xmlns:xlink="http://www.w3.org/1999/xlink">
    <title>admin</title>
    <g id="控件" stroke="none" stroke-width="1" fill="none" fill-rule="evenodd">
        <g id="导航/顶部导航" transform="translate(-1376.000000, -11.000000)">
            <g id="编组-12" transform="translate(1268.000000, 7.000000)">
                <g id="admin" transform="translate(108.000000, 4.000000)">
                    <circle id="椭圆形" fill="#4B6EEF" cx="14" cy="14" r="14"></circle>
                    <g id="头像" transform="translate(6.000000, 5.000000)" fill-rule="nonzero">
                        <g id="编组" transform="translate(0.000000, 0.200000)">
                            <path d="M0,8.8 C0,13.218278 3.581722,16.8 8,16.8 C12.418278,16.8 16,13.218278 16,8.8 C16,4.381722 12.418278,0.8 8,0.8 C3.581722,0.8 0,4.381722 0,8.8 Z" id="路径"></path>
                            <g id="编组-2" transform="translate(0.421067, 0.510240)" fill="#FFFFFF">
                                <path d="M9.46970835,0.291530164 L9.4165188,0.28976 L7.6073028,0.28976 C5.29322373,0.28976 3.70544115,2.17264034 3.70544115,4.54479909 C3.67234328,5.53093881 4.07595633,6.50967183 4.81748092,7.22281129 C5.55140732,7.92864341 6.55186513,8.31263859 7.58646724,8.28870462 C9.87759333,8.2889186 11.5088595,6.805908 11.5088595,4.54479909 L11.5088595,2.3238273 C11.4290533,1.19941736 10.5539548,0.363778256 9.46970835,0.291530164 Z M7.6073028,1.88976 L9.3808,1.8896 L9.36332925,1.88798984 C9.66475823,1.90807537 9.89227613,2.12533417 9.91097465,2.38196291 L9.90885951,4.54479909 C9.90885951,5.88643894 9.0261565,6.6889186 7.56796539,6.6889186 C6.93831361,6.70327062 6.35113161,6.47789874 5.92656399,6.06958332 C5.50980975,5.66878219 5.28658262,5.12747224 5.30500279,4.57127921 C5.30544115,3.00162534 6.24304743,1.88976 7.6073028,1.88976 Z" id="路径"></path>
                                <path d="M10.6704369,9.09521623 L4.26667221,9.09521623 C2.24021522,9.09521623 0.536351741,10.6213633 0.0987097471,12.5150825 C-0.384041505,14.6039937 0.875183076,16.2952162 3.35184868,16.2952162 L11.5852604,16.2952162 C14.0619261,16.2952162 15.3211506,14.6039937 14.8383994,12.5150825 C14.4007574,10.6213633 12.6968939,9.09521623 10.6704369,9.09521623 Z M4.26667221,10.6952162 L10.6704369,10.6952162 C11.9103065,10.6952162 13.0015359,11.6726282 13.2794872,12.87535 C13.5359385,13.9850397 13.0071661,14.6952162 11.5852604,14.6952162 L3.35184868,14.6952162 C1.929943,14.6952162 1.40117063,13.9850397 1.65762197,12.87535 C1.93557319,11.6726282 3.02680261,10.6952162 4.26667221,10.6952162 Z" id="路径"></path>
                            </g>
                        </g>
                    </g>
                </g>
            </g>
        </g>
    </g>
</svg>