<!-- Generated by IcoMoon.io -->
<svg version="1.1" xmlns="http://www.w3.org/2000/svg" width="1042" height="1024" viewBox="0 0 1042 1024">
<title></title>
<g id="icomoon-ignore">
</g>
<path fill="#000" d="M930.909 1023.218l-45.601-46.057h-18.24c3.257-2.41 6.514-5.602 9.772-8.143l-93.807-93.873c-37.546 22.978-82.949 36.664-131.534 36.871h-0.057c-143.905-0.009-260.56-116.67-260.56-260.576s116.655-260.567 260.559-260.576h-390.863v-130.288h781.729v130.288h-175.238c-6.514-4.234-13.68-7.557-20.195-11.4v11.4h-195.432c0.586-0.005 1.28-0.008 1.974-0.008 142.833 0 258.622 115.789 258.622 258.622 0 49.343-13.818 95.458-37.796 134.687l0.644-1.134 94.459 93.873c2.654-3.723 5.218-6.95 7.936-10.039l-0.118 0.137v18.045l46.252 46.057zM651.441 521.153c-71.956 0-130.288 58.332-130.288 130.288s58.332 130.288 130.288 130.288c71.956 0 130.288-58.332 130.288-130.288v0c0-71.956-58.332-130.288-130.288-130.288v0zM260.576 0h781.729v130.288h-781.729v-130.288zM0 781.729h130.288v130.288h-130.288v-130.288zM0 521.153h130.288v130.288h-130.288v-130.288zM0 260.576h130.288v130.288h-130.288v-130.288zM0 0h130.288v130.288h-130.288v-130.288zM435.814 912.017h-175.238v-130.288h54.070c30.647 52.724 71.347 96.336 119.809 129.413l1.359 0.876z"></path>
</svg>
