<?xml version="1.0" encoding="UTF-8"?>
<svg width="10px" height="7px" viewBox="0 0 10 7" version="1.1" xmlns="http://www.w3.org/2000/svg" xmlns:xlink="http://www.w3.org/1999/xlink">
    <title>下拉</title>
    <g id="页面-1" stroke="none" stroke-width="1" fill="none" fill-rule="evenodd" fill-opacity="0.25">
        <g id="列表类/显示列" transform="translate(-1300.000000, -196.000000)" fill="#000000" fill-rule="nonzero">
            <g id="编组-6备份" transform="translate(1080.000000, 168.000000)">
                <g id="编组-5" transform="translate(188.000000, 21.000000)">
                    <g id="下拉" transform="translate(32.100000, 7.930093)">
                        <path d="M0.222293514,0.220405326 C0.494053878,-0.0489789612 0.92323614,-0.0714276518 1.22293237,0.154766105 L1.30124174,0.222621282 L4.89625482,3.8830596 L8.50094014,0.220405326 C8.74552447,-0.0220405326 9.11762054,-0.0644685578 9.40683397,0.0931212501 L9.49988012,0.153059254 L9.57768277,0.220405326 C9.84712945,0.487496162 9.8716246,0.907934446 9.65131075,1.20276519 L9.57787247,1.28716724 L5.52702591,5.31184809 C5.3409872,5.4962602 5.13965994,5.61009111 4.92711092,5.59929399 L4.88412151,5.59363592 L4.8394993,5.59783249 C4.70830573,5.60199101 4.59638159,5.5599122 4.46334856,5.46851648 L4.35898496,5.39067465 L4.26323745,5.31147092 L0.222293514,1.2873555 C-0.0740978381,0.993555577 -0.0740978381,0.514205245 0.222293514,0.220405326 Z" id="路径"></path>
                    </g>
                </g>
            </g>
        </g>
    </g>
</svg>