<!-- Generated by IcoMoon.io -->
<svg version="1.1" xmlns="http://www.w3.org/2000/svg" width="32" height="32" viewBox="0 0 32 32">
<title>element</title>
<path d="M19.2 0c0.884 0 1.6 0.716 1.6 1.6v1.6h1.6c3.535 0 6.4 2.865 6.4 6.4v1.6h1.6c0.884 0 1.6 0.716 1.6 1.6s-0.716 1.6-1.6 1.6h-1.6v3.2h1.6c0.884 0 1.6 0.716 1.6 1.6s-0.716 1.6-1.6 1.6h-1.6v1.6c0 3.535-2.865 6.4-6.4 6.4h-1.6v1.6c0 0.884-0.716 1.6-1.6 1.6s-1.6-0.716-1.6-1.6v-1.6h-3.2v1.6c0 0.884-0.716 1.6-1.6 1.6s-1.6-0.716-1.6-1.6v-1.6h-1.6c-3.535 0-6.4-2.865-6.4-6.4v-1.6h-1.6c-0.884 0-1.6-0.716-1.6-1.6s0.716-1.6 1.6-1.6h1.6v-3.2h-1.6c-0.884 0-1.6-0.716-1.6-1.6s0.716-1.6 1.6-1.6h1.6v-1.6c0-3.535 2.865-6.4 6.4-6.4h1.6v-1.6c0-0.884 0.716-1.6 1.6-1.6s1.6 0.716 1.6 1.6v1.6h3.2v-1.6c0-0.884 0.716-1.6 1.6-1.6zM11.2 6.4h-1.6c-1.687 0-3.069 1.305-3.191 2.961l-0.009 0.239v1.6h1.6c0.884 0 1.6 0.716 1.6 1.6s-0.716 1.6-1.6 1.6h-1.6v3.2h1.6c0.884 0 1.6 0.716 1.6 1.6s-0.716 1.6-1.6 1.6h-1.6v1.6c0 1.687 1.305 3.069 2.961 3.191l0.239 0.009h1.6v-1.6c0-0.884 0.716-1.6 1.6-1.6s1.6 0.716 1.6 1.6v1.6h3.2v-1.6c0-0.884 0.716-1.6 1.6-1.6s1.6 0.716 1.6 1.6v1.6h1.6c1.687 0 3.069-1.305 3.191-2.961l0.009-0.239v-1.6h-1.6c-0.884 0-1.6-0.716-1.6-1.6s0.716-1.6 1.6-1.6h1.6v-3.2h-1.6c-0.884 0-1.6-0.716-1.6-1.6s0.716-1.6 1.6-1.6h1.6v-1.6c0-1.687-1.305-3.069-2.961-3.191l-0.239-0.009h-1.6v1.6c0 0.884-0.716 1.6-1.6 1.6s-1.6-0.716-1.6-1.6v-1.6h-3.2v1.6c0 0.884-0.716 1.6-1.6 1.6s-1.6-0.716-1.6-1.6v-1.6z"></path>
</svg>
