<?xml version="1.0" encoding="UTF-8"?>
<svg width="16px" height="16px" viewBox="0 0 16 16" version="1.1" xmlns="http://www.w3.org/2000/svg" xmlns:xlink="http://www.w3.org/1999/xlink">
    <title>通知</title>
    <g id="控件" stroke="none" stroke-width="1" fill="none" fill-rule="evenodd">
        <g id="导航/顶部导航" transform="translate(-1340.000000, -17.000000)" fill="#5B5D66" fill-rule="nonzero">
            <g id="编组-12" transform="translate(1268.000000, 7.000000)">
                <g id="通知" transform="translate(72.000000, 10.000000)">
                    <g id="编组" transform="translate(0.800000, 0.000000)">
                        <path d="M13.8823529,10.6405325 L12.4705882,9.22092468 L12.4705882,5.72288547 C12.5094266,3.03688158 10.5611603,0.733776404 7.90588235,0.326807032 C6.39824519,0.128262078 4.87812531,0.588578645 3.73390228,1.5901492 C2.58967925,2.59171975 1.93218764,4.03752769 1.92941176,5.55817959 L1.92941176,9.22092468 L0.517647059,10.6405325 C0.155107557,11.0091182 0.0484807648,11.5589439 0.24696285,12.0363276 C0.445444935,12.5137112 0.910457884,12.825866 1.42745097,12.8287678 L4.06274509,12.8287678 L4.06274509,13.0954345 C4.13902077,14.753221 5.54197499,16.0369241 7.2,15.9660227 C8.85802501,16.0369241 10.2609792,14.753221 10.3372549,13.0954345 L10.3372549,12.8287678 L12.972549,12.8287678 C13.4895421,12.825866 13.9545551,12.5137112 14.1530372,12.0363276 C14.3515192,11.5589439 14.2448924,11.0091182 13.8823529,10.6405325 Z M8.76862745,13.0954345 C8.67826245,13.8791851 7.98698477,14.4529456 7.2,14.3973953 C6.41301523,14.4529456 5.72173755,13.8791851 5.63137256,13.0954345 L5.63137256,12.8287678 L8.76862745,12.8287678 L8.76862745,13.0954345 Z M2.10980392,11.2601404 L3.03529412,10.3346502 C3.33179561,10.0399079 3.49837049,9.63899886 3.49803921,9.22092468 L3.49803921,5.55817959 C3.4989036,4.48773814 3.96210284,3.46984352 4.76862744,2.76602273 C5.56456604,2.04485131 6.63693203,1.70937853 7.70196079,1.84837567 C9.57735514,2.15288138 10.9421586,3.79198355 10.9019608,5.69151291 L10.9019608,9.22092468 C10.8995502,9.63787054 11.0632368,10.0386206 11.3568627,10.3346502 L12.2901961,11.2601404 L2.10980392,11.2601404 Z" id="形状"></path>
                    </g>
                </g>
            </g>
        </g>
    </g>
</svg>