<?xml version="1.0" encoding="UTF-8"?>
<svg width="20px" height="20px" viewBox="0 0 20 20" version="1.1" xmlns="http://www.w3.org/2000/svg" xmlns:xlink="http://www.w3.org/1999/xlink">
    <title>图标/右</title>
    <g id="图标/右" stroke="none" stroke-width="1" fill="none" fill-rule="evenodd">
        <path d="M3.31756216,5.9292828 C3.70579125,5.54444811 4.31890877,5.51237855 4.74704624,5.83551249 L4.85891678,5.93244845 L9.99464974,11.1616461 L15.1442002,5.9292828 C15.4936064,5.58293158 16.0251722,5.52232011 16.4383342,5.74744841 L16.5712573,5.83307413 L16.682404,5.9292828 C17.0673278,6.31084114 17.1023209,6.91146726 16.7875868,7.33265404 L16.682675,7.45322839 L10.8957513,13.2027725 C10.6299817,13.4662183 10.3423713,13.6288339 10.0387299,13.6134095 L9.97731645,13.6053265 L9.91357043,13.6113216 C9.72615104,13.6172624 9.56625941,13.5571498 9.37621222,13.4265845 L9.22712137,13.3153818 L9.09033922,13.2022337 L3.31756216,7.45349733 C2.89414595,7.03378316 2.89414595,6.34899697 3.31756216,5.9292828 Z" id="路径" fill="#5B5D66" fill-rule="nonzero" transform="translate(10.000000, 9.614418) rotate(-90.000000) translate(-10.000000, -9.614418) "></path>
    </g>
</svg>