<?xml version="1.0" encoding="UTF-8"?>
<svg width="20px" height="20px" viewBox="0 0 20 20" version="1.1" xmlns="http://www.w3.org/2000/svg" xmlns:xlink="http://www.w3.org/1999/xlink">
    <title>图标/换肤</title>
    <g id="图标/换肤" stroke="none" stroke-width="1" fill="none" fill-rule="evenodd">
        <path d="M3.71226415,1.5572603 C4.16981132,1.09971313 4.8254717,0.906316899 5.47169811,1.04310935 C5.77830189,1.10914709 6.05660377,1.23650558 6.29716981,1.4299018 C7.22136119,2.17013092 8.36924817,2.60125336 9.54822013,2.65906561 L9.85849057,2.66575086 L10.0283019,2.66103388 L10.1792453,2.66575086 C11.4528302,2.66575086 12.7028302,2.22707162 13.6981132,1.4299018 C13.9386792,1.23650558 14.2169811,1.10914709 14.5235849,1.04310935 C15.1116352,0.91771627 15.7155398,1.0697734 16.1645347,1.44841486 L16.2830189,1.5572603 L19.4386792,4.71292067 C19.7877358,5.06197728 19.990566,5.54310935 20,6.03839237 C20,6.09027916 20,6.14216596 19.995283,6.19405275 C19.9622642,6.70348671 19.7264151,7.18933577 19.3396226,7.52424143 C18.6839623,8.09499614 17.9764151,8.60443011 17.2264151,9.03839237 C17.1169811,9.09876973 17.0437736,9.20141124 17.0188679,9.31975086 L17.009434,9.41103388 L17.009434,16.1563169 C17.009434,17.1563169 16.3254717,18.0242414 15.3537736,18.2695244 C13.8066038,18.6594616 12.21471,18.8705028 10.5946567,18.9026481 L9.79716981,18.9063169 C8.05660377,18.9063169 6.32075472,18.6940527 4.64150943,18.2695244 C3.71933962,18.0378683 3.06223795,17.2508312 2.99207285,16.3216765 L2.98584906,16.1563169 L2.98584906,9.41103388 C2.98584906,9.26009048 2.90566038,9.11858105 2.76886792,9.03839237 C2.01886792,8.59971313 1.30660377,8.09027916 0.655660377,7.52424143 C0.307651992,7.21816176 0.0826345213,6.79654518 0.0170497192,6.34221384 L0,6.17046784 L0,6.04782633 C0.00419287212,5.60338189 0.164919637,5.17011844 0.449051427,4.83085814 L0.561320755,4.70820369 L3.71226415,1.5572603 Z M14.913,3.016 L14.6914001,3.18788547 C13.4740783,4.08017516 12.0101023,4.59424239 10.5028225,4.65881896 L10.1415094,4.66575086 L9.82075472,4.66575086 C8.19965053,4.66575086 6.60817925,4.14353561 5.30151566,3.18594957 L5.081,3.016 L2.03,6.067 L2.30719957,6.29875838 C2.65281755,6.57689418 3.01728123,6.83792231 3.39642461,7.07886254 L3.78030692,7.31299643 C4.47607204,7.72085874 4.92323675,8.44146322 4.97976643,9.23903378 L4.98584906,9.41103388 L4.98584906,16.1563169 C4.98584906,16.2380448 5.0402978,16.3075632 5.13170522,16.3305278 C6.47572688,16.6703085 7.86624018,16.8609791 9.27014319,16.8991555 L9.79716981,16.9063169 L10.0013125,16.9063767 C11.6653775,16.9192432 13.2929432,16.7263782 14.8642737,16.330352 C14.9348102,16.3125466 14.9853909,16.2625114 15.0028017,16.2026783 L15.009434,16.1563169 L15.009434,9.41103388 C15.009434,8.59108798 15.4198231,7.8263866 16.0796264,7.39461647 L16.2247718,7.30729138 C16.7299826,7.01496813 17.217606,6.67917346 17.6843613,6.30244081 L17.964,6.067 L14.913,3.016 Z" id="形状" fill="#5B5D66" fill-rule="nonzero"></path>
    </g>
</svg>