<svg aria-hidden="true" style="position: absolute; width: 0; height: 0; overflow: hidden;" version="1.1" xmlns="http://www.w3.org/2000/svg" xmlns:xlink="http://www.w3.org/1999/xlink">
<defs>
<symbol id="icon-settings" viewBox="0 0 32 32">
<path d="M13.737 1.6c1.184-1.184 3.065-1.246 4.322-0.187l0.204 0.187 2.72 2.718 3.498 0.001c1.457 0 2.702 0.979 3.087 2.402l0.059 0.256 0.040 0.264 0.013 0.279-0.001 3.494 2.722 2.723c1.118 1.118 1.236 2.858 0.353 4.107l-0.166 0.215-0.187 0.204-2.722 2.721 0.001 3.494c0.002 1.458-0.976 2.703-2.4 3.089l-0.256 0.059-0.264 0.040-0.279 0.014-3.497-0.002-2.721 2.722c-1.118 1.118-2.858 1.236-4.107 0.353l-0.215-0.166-0.204-0.187-2.723-2.722-3.494 0.001c-1.457 0-2.702-0.978-3.088-2.401l-0.059-0.256-0.040-0.264-0.013-0.279-0.001-3.498-2.718-2.72c-1.118-1.118-1.236-2.858-0.353-4.107l0.166-0.215 0.187-0.204 2.718-2.721 0.001-3.498c0.002-1.601 1.179-2.927 2.716-3.162l0.246-0.028 0.239-0.009 3.496-0.001 2.721-2.718zM16 3.863l-3.656 3.656-4.822 0.001-0.003 4.825-3.656 3.656 3.656 3.656 0.001 4.824 4.821-0.001 3.659 3.659 3.659-3.659h4.82v-4.82l3.659-3.659-3.659-3.659 0.004-4.729-0.004-0.093h-4.823l-3.656-3.656zM16 9.6c3.535 0 6.4 2.865 6.4 6.4s-2.865 6.4-6.4 6.4c-3.535 0-6.4-2.865-6.4-6.4s2.865-6.4 6.4-6.4zM16 12.8c-1.767 0-3.2 1.433-3.2 3.2s1.433 3.2 3.2 3.2c1.767 0 3.2-1.433 3.2-3.2s-1.433-3.2-3.2-3.2z"></path>
</symbol>
<symbol id="icon-warning" viewBox="0 0 32 32">
<path d="M16 6.4c6.186 0 11.2 5.014 11.2 11.2v11.2h3.2c0.884 0 1.6 0.716 1.6 1.6s-0.716 1.6-1.6 1.6h-28.8c-0.884 0-1.6-0.716-1.6-1.6s0.716-1.6 1.6-1.6h3.2v-11.2c0-6.186 5.014-11.2 11.2-11.2zM16 9.6c-4.302 0-7.811 3.396-7.993 7.653l-0.007 0.347v11.2h6.4v-3.2c0-0.884 0.716-1.6 1.6-1.6s1.6 0.716 1.6 1.6v3.2h6.4v-11.2c0-4.302-3.396-7.811-7.653-7.993l-0.347-0.007zM16 12.8c2.651 0 4.8 2.149 4.8 4.8s-2.149 4.8-4.8 4.8c-2.651 0-4.8-2.149-4.8-4.8s2.149-4.8 4.8-4.8zM16 16c-0.884 0-1.6 0.716-1.6 1.6s0.716 1.6 1.6 1.6c0.884 0 1.6-0.716 1.6-1.6s-0.716-1.6-1.6-1.6zM5.366 5.503l1.131 1.131c0.625 0.625 0.625 1.638 0 2.263s-1.638 0.625-2.263 0l-1.131-1.131c-0.625-0.625-0.625-1.638 0-2.263s1.638-0.625 2.263 0zM26.634 5.503c0.625-0.625 1.638-0.625 2.263 0 0.577 0.577 0.621 1.484 0.133 2.112l-0.133 0.151-1.131 1.131c-0.625 0.625-1.638 0.625-2.263 0-0.577-0.577-0.621-1.484-0.133-2.112l0.133-0.151 1.131-1.131zM16 0c0.884 0 1.6 0.716 1.6 1.6v1.6c0 0.884-0.716 1.6-1.6 1.6s-1.6-0.716-1.6-1.6v-1.6c0-0.884 0.716-1.6 1.6-1.6z"></path>
</symbol>
<symbol id="icon-detect" viewBox="0 0 32 32">
<path d="M28.418 9.202c2.224 2.421 3.582 5.651 3.582 9.198 0 7.511-6.089 13.6-13.6 13.6-3.547 0-6.776-1.358-9.198-3.582l19.216-19.216zM27.925 14.219l-13.706 13.706 0.179 0.079c1.109 0.462 2.302 0.732 3.537 0.786l0.465 0.010c5.744 0 10.4-4.656 10.4-10.4 0-1.4-0.276-2.754-0.797-4.002l-0.079-0.179zM19.2 0v3.2c-8.837 0-16 7.163-16 16h-3.2c0-10.604 8.596-19.2 19.2-19.2zM19.2 6.4v3.2c-5.302 0-9.6 4.298-9.6 9.6h-3.2c0-7.069 5.731-12.8 12.8-12.8zM19.2 12.8v3.2c-1.767 0-3.2 1.433-3.2 3.2h-3.2c0-3.535 2.865-6.4 6.4-6.4z"></path>
</symbol>
<symbol id="icon-layout" viewBox="0 0 32 32">
<path d="M13.689 1.6c0.295 0 0.533 0.239 0.533 0.533v13.333c0 0.295-0.239 0.533-0.533 0.533h-11.556c-0.295 0-0.533-0.239-0.533-0.533v-13.333c0-0.295 0.239-0.533 0.533-0.533h11.556zM10.667 5.156h-5.511v7.289h5.511v-7.289zM29.867 16c0.295 0 0.533 0.239 0.533 0.533v13.333c0 0.295-0.239 0.533-0.533 0.533h-11.556c-0.295 0-0.533-0.239-0.533-0.533v-13.333c0-0.295 0.239-0.533 0.533-0.533h11.556zM26.844 19.556h-5.511v7.289h5.511v-7.289zM14.222 20.089v9.778c0 0.295-0.239 0.533-0.533 0.533h-11.556c-0.295 0-0.533-0.239-0.533-0.533v-9.778c0-0.295 0.239-0.533 0.533-0.533h11.556c0.295 0 0.533 0.239 0.533 0.533zM10.667 23.111h-5.511v3.733h5.511v-3.733zM29.867 1.6c0.295 0 0.533 0.239 0.533 0.533v9.778c0 0.295-0.239 0.533-0.533 0.533h-11.556c-0.295 0-0.533-0.239-0.533-0.533v-9.778c0-0.295 0.239-0.533 0.533-0.533h11.556zM26.844 5.156h-5.511v3.733h5.511v-3.733z"></path>
</symbol>
<symbol id="icon-proxy" viewBox="0 0 32 32">
<path d="M0 11.2c0-0.884 0.716-1.6 1.6-1.6h6.4c0.884 0 1.6 0.716 1.6 1.6v3.2h4.8v-8c0-0.884 0.716-1.6 1.6-1.6h6.4v-3.2c0-0.884 0.716-1.6 1.6-1.6h6.4c0.884 0 1.6 0.716 1.6 1.6v9.6c0 0.884-0.716 1.6-1.6 1.6h-6.4c-0.884 0-1.6-0.716-1.6-1.6v-3.2h-4.8v16h4.8v-3.2c0-0.884 0.716-1.6 1.6-1.6h6.4c0.884 0 1.6 0.716 1.6 1.6v9.6c0 0.884-0.716 1.6-1.6 1.6h-6.4c-0.884 0-1.6-0.716-1.6-1.6v-3.2h-6.4c-0.884 0-1.6-0.716-1.6-1.6v-8h-4.8v3.2c0 0.884-0.716 1.6-1.6 1.6h-6.4c-0.884 0-1.6-0.716-1.6-1.6v-9.6zM25.6 22.4v6.4h3.2v-6.4h-3.2zM25.6 3.2v6.4h3.2v-6.4h-3.2zM3.2 12.8v6.4h3.2v-6.4h-3.2z"></path>
</symbol>
<symbol id="icon-dispatch" viewBox="0 0 32 32">
<path d="M24.779 17.6l6.584 3.494c0.849 0.45 0.849 1.18 0 1.631l-13.827 7.337c-0.849 0.45-2.224 0.45-3.073 0l-13.827-7.337c-0.849-0.45-0.849-1.18 0-1.631l6.583-3.494 3.32 1.761-4.8 2.548 10.259 5.443 10.261-5.443-4.8-2.547 3.32-1.763zM15.92 9.059l6.399 6.398-2.258 2.258-4.141-4.143-4.144 4.143-2.258-2.256 6.401-6.4zM17.536 1.95l13.827 7.605c0.849 0.467 0.849 1.223 0 1.69l-5.736 3.155-3.322-1.827 3.954-2.173-10.259-5.643-10.261 5.643 3.952 2.173-3.32 1.827-5.735-3.155c-0.849-0.467-0.849-1.223 0-1.69l13.827-7.605c0.848-0.467 2.224-0.467 3.073 0z"></path>
</symbol>
<symbol id="icon-case" viewBox="0 0 32 32">
<path d="M21.588 10.629c0.356-0.214 0.784-0.275 1.186-0.169s0.744 0.371 0.944 0.728c0.396 0.69 0.205 1.557-0.424 2.024l-0.141 0.094-5.648 3.254 0 6.32c0 0.744-0.523 1.366-1.212 1.519l-0.162 0.027-0.167 0.009c-0.418 0.008-0.822-0.154-1.118-0.45-0.254-0.254-0.409-0.587-0.443-0.931l-0.007-0.173-0-6.286-5.704-3.292c-0.633-0.372-0.906-1.123-0.7-1.793l0.061-0.165 0.075-0.149c0.203-0.363 0.545-0.627 0.947-0.734 0.345-0.091 0.708-0.059 1.021 0.082l0.152 0.080 5.701 3.257 5.639-3.25z"></path>
<path d="M13.512 0.66c1.449-0.828 3.246-0.828 4.697-0.166l0.315 0.166 9.682 5.533c1.476 0.843 2.421 2.367 2.534 4.048l0.011 0.338v10.975c0 1.699-0.854 3.277-2.257 4.208l-0.288 0.178-9.682 5.41c-1.416 0.84-3.639 0.785-4.857 0.16l-0.414-0.206-9.424-5.364c-1.476-0.843-2.421-2.367-2.534-4.048l-0.011-0.338v-10.975c0-1.699 0.854-3.277 2.257-4.208l0.288-0.178 9.682-5.533zM16.853 3.584c-0.453-0.259-0.996-0.291-1.472-0.097l-0.199 0.097-9.682 5.533c-0.466 0.266-0.774 0.737-0.837 1.263l-0.012 0.199v10.975c0 0.537 0.256 1.038 0.681 1.353l0.167 0.109 9.682 5.533c0.453 0.259 0.996 0.291 1.472 0.097l0.199-0.097 9.682-5.533c0.466-0.266 0.774-0.737 0.837-1.263l0.012-0.199v-10.975c0-0.537-0.256-1.038-0.681-1.353l-0.167-0.109-9.682-5.533z"></path>
</symbol>
<symbol id="icon-element" viewBox="0 0 32 32">
<path d="M19.2 0c0.884 0 1.6 0.716 1.6 1.6v1.6h1.6c3.535 0 6.4 2.865 6.4 6.4v1.6h1.6c0.884 0 1.6 0.716 1.6 1.6s-0.716 1.6-1.6 1.6h-1.6v3.2h1.6c0.884 0 1.6 0.716 1.6 1.6s-0.716 1.6-1.6 1.6h-1.6v1.6c0 3.535-2.865 6.4-6.4 6.4h-1.6v1.6c0 0.884-0.716 1.6-1.6 1.6s-1.6-0.716-1.6-1.6v-1.6h-3.2v1.6c0 0.884-0.716 1.6-1.6 1.6s-1.6-0.716-1.6-1.6v-1.6h-1.6c-3.535 0-6.4-2.865-6.4-6.4v-1.6h-1.6c-0.884 0-1.6-0.716-1.6-1.6s0.716-1.6 1.6-1.6h1.6v-3.2h-1.6c-0.884 0-1.6-0.716-1.6-1.6s0.716-1.6 1.6-1.6h1.6v-1.6c0-3.535 2.865-6.4 6.4-6.4h1.6v-1.6c0-0.884 0.716-1.6 1.6-1.6s1.6 0.716 1.6 1.6v1.6h3.2v-1.6c0-0.884 0.716-1.6 1.6-1.6zM11.2 6.4h-1.6c-1.687 0-3.069 1.305-3.191 2.961l-0.009 0.239v1.6h1.6c0.884 0 1.6 0.716 1.6 1.6s-0.716 1.6-1.6 1.6h-1.6v3.2h1.6c0.884 0 1.6 0.716 1.6 1.6s-0.716 1.6-1.6 1.6h-1.6v1.6c0 1.687 1.305 3.069 2.961 3.191l0.239 0.009h1.6v-1.6c0-0.884 0.716-1.6 1.6-1.6s1.6 0.716 1.6 1.6v1.6h3.2v-1.6c0-0.884 0.716-1.6 1.6-1.6s1.6 0.716 1.6 1.6v1.6h1.6c1.687 0 3.069-1.305 3.191-2.961l0.009-0.239v-1.6h-1.6c-0.884 0-1.6-0.716-1.6-1.6s0.716-1.6 1.6-1.6h1.6v-3.2h-1.6c-0.884 0-1.6-0.716-1.6-1.6s0.716-1.6 1.6-1.6h1.6v-1.6c0-1.687-1.305-3.069-2.961-3.191l-0.239-0.009h-1.6v1.6c0 0.884-0.716 1.6-1.6 1.6s-1.6-0.716-1.6-1.6v-1.6h-3.2v1.6c0 0.884-0.716 1.6-1.6 1.6s-1.6-0.716-1.6-1.6v-1.6z"></path>
</symbol>
<symbol id="icon-task" viewBox="0 0 32 32">
<path d="M24 28.8c0.884 0 1.6 0.716 1.6 1.6s-0.716 1.6-1.6 1.6h-16c-0.884 0-1.6-0.716-1.6-1.6s0.716-1.6 1.6-1.6h16zM27.2 1.6c2.651 0 4.8 2.149 4.8 4.8v14.4c0 2.651-2.149 4.8-4.8 4.8h-22.4c-2.651 0-4.8-2.149-4.8-4.8v-14.4c0-2.651 2.149-4.8 4.8-4.8h22.4zM27.2 4.8h-22.4c-0.821 0-1.497 0.618-1.589 1.413l-0.011 0.187v14.4c0 0.821 0.618 1.497 1.413 1.589l0.187 0.011h22.4c0.821 0 1.497-0.618 1.589-1.413l0.011-0.187v-14.4c0-0.821-0.618-1.497-1.413-1.589l-0.187-0.011zM19.701 8.361c0.447-0.009 0.859 0.22 1.083 0.591l0.075 0.145 1.744 4.063h3.369c0.326-0 0.638 0.127 0.868 0.353s0.36 0.534 0.359 0.854c0.001 0.321-0.129 0.628-0.359 0.855-0.184 0.181-0.421 0.299-0.675 0.339l-0.193 0.015h-4.184c-0.433 0.001-0.829-0.223-1.050-0.58l-0.083-0.161-0.852-1.99-1.628 4.323c-0.157 0.41-0.522 0.702-0.953 0.774l-0.164 0.017h-0.035c-0.427 0-0.819-0.218-1.040-0.567l-0.084-0.158-2.050-4.607-1.857 4.35c-0.175 0.412-0.566 0.695-1.018 0.736-0.395 0.038-0.781-0.115-1.037-0.404l-0.102-0.132-1.474-2.195h-2.334c-0.324 0.004-0.637-0.124-0.868-0.351s-0.36-0.535-0.359-0.856c0-0.32 0.13-0.628 0.36-0.854 0.184-0.181 0.421-0.299 0.675-0.338l0.193-0.015h2.994c0.354-0 0.687 0.15 0.918 0.407l0.106 0.137 0.572 0.857 2.077-4.868c0.191-0.445 0.633-0.736 1.124-0.74 0.429-0.001 0.823 0.217 1.047 0.567l0.085 0.158 1.977 4.445 1.647-4.38c0.175-0.465 0.621-0.778 1.124-0.789z"></path>
</symbol>
<symbol id="icon-terminal" viewBox="0 0 32 32">
<path d="M24.702 3.2c1.233 0 2.356 0.708 2.887 1.82l3.822 7.476 0.066 0.151c0.33 0.503 0.522 1.105 0.522 1.753v9.6c0 1.768-1.433 3.2-3.2 3.2h-25.599c-1.768 0-3.2-1.433-3.2-3.2v-9.6c0-0.649 0.193-1.252 0.524-1.756l0.064-0.148 3.822-7.476c0.532-1.112 1.655-1.82 2.887-1.82h17.405zM28.8 14.4h-25.599v9.6h25.599v-9.6zM6.4 17.6c0.884 0 1.6 0.716 1.6 1.6s-0.716 1.6-1.6 1.6c-0.884 0-1.6-0.716-1.6-1.6s0.716-1.6 1.6-1.6zM11.2 17.6c0.884 0 1.6 0.716 1.6 1.6s-0.716 1.6-1.6 1.6c-0.884 0-1.6-0.716-1.6-1.6s0.716-1.6 1.6-1.6zM24.702 6.4h-17.405l-2.456 4.8h22.315l-2.455-4.8z"></path>
</symbol>
</defs>
</svg>
