<!-- Generated by IcoMoon.io -->
<svg version="1.1" xmlns="http://www.w3.org/2000/svg" width="32" height="32" viewBox="0 0 32 32">
<title>terminal</title>
<path d="M24.702 3.2c1.233 0 2.356 0.708 2.887 1.82l3.822 7.476 0.066 0.151c0.33 0.503 0.522 1.105 0.522 1.753v9.6c0 1.768-1.433 3.2-3.2 3.2h-25.599c-1.768 0-3.2-1.433-3.2-3.2v-9.6c0-0.649 0.193-1.252 0.524-1.756l0.064-0.148 3.822-7.476c0.532-1.112 1.655-1.82 2.887-1.82h17.405zM28.8 14.4h-25.599v9.6h25.599v-9.6zM6.4 17.6c0.884 0 1.6 0.716 1.6 1.6s-0.716 1.6-1.6 1.6c-0.884 0-1.6-0.716-1.6-1.6s0.716-1.6 1.6-1.6zM11.2 17.6c0.884 0 1.6 0.716 1.6 1.6s-0.716 1.6-1.6 1.6c-0.884 0-1.6-0.716-1.6-1.6s0.716-1.6 1.6-1.6zM24.702 6.4h-17.405l-2.456 4.8h22.315l-2.455-4.8z"></path>
</svg>
