<?xml version="1.0" encoding="UTF-8"?>
<svg width="16px" height="16px" viewBox="0 0 16 16" version="1.1" xmlns="http://www.w3.org/2000/svg" xmlns:xlink="http://www.w3.org/1999/xlink">
    <title>提示</title>
    <g id="控件" stroke="none" stroke-width="1" fill="none" fill-rule="evenodd">
        <g id="导航/顶部导航" transform="translate(-1304.000000, -17.000000)" fill="#5B5D66" fill-rule="nonzero">
            <g id="编组-12" transform="translate(1268.000000, 7.000000)">
                <g id="编组" transform="translate(36.000000, 10.000000)">
                    <path d="M8,1.5 C4.41014913,1.5 1.5,4.41014913 1.5,8 C1.5,11.5898509 4.41014913,14.5 8,14.5 C11.5898509,14.5 14.5,11.5898509 14.5,8 C14.5,4.41014913 11.5898509,1.5 8,1.5 Z M8,0 C12.418278,0 16,3.581722 16,8 C16,12.418278 12.418278,16 8,16 C3.581722,16 0,12.418278 0,8 C0,3.581722 3.581722,0 8,0 Z" id="形状"></path>
                    <path d="M7.844,4 C6.956,4 6.26,4.252 5.756,4.768 C5.252,5.272 5,5.956 5,6.832 L6.26,6.832 C6.26,6.304 6.368,5.896 6.584,5.608 C6.824,5.26 7.22,5.092 7.76,5.092 C8.192,5.092 8.54,5.212 8.78,5.452 C9.008,5.692 9.128,6.016 9.128,6.436 C9.128,6.748 9.008,7.036 8.792,7.312 L8.588,7.54 C7.844,8.2 7.388,8.692 7.232,9.028 C7.064,9.34 6.992,9.724 6.992,10.168 L6.992,10.372 L8.276,10.372 L8.276,10.168 C8.276,9.88 8.336,9.616 8.468,9.376 C8.576,9.16 8.744,8.944 8.972,8.752 C9.536,8.26 9.872,7.948 9.98,7.816 C10.28,7.432 10.436,6.94 10.436,6.352 C10.436,5.632 10.196,5.056 9.716,4.636 C9.236,4.204 8.612,4 7.844,4 Z M7.628,11.02 C7.39594935,11.011407 7.17048556,11.0981238 7.004,11.26 C6.83515142,11.4177526 6.74318777,11.6410929 6.752,11.872 C6.75088275,12.1035785 6.84320837,12.3258208 7.0080864,12.4884402 C7.17296442,12.6510596 7.39645896,12.7403112 7.628,12.736 C7.868,12.736 8.084,12.652 8.252,12.496 C8.42257859,12.3335086 8.51816564,12.1075755 8.516,11.872 C8.52481223,11.6410929 8.43284858,11.4177526 8.264,11.26 C8.096,11.092 7.88,11.02 7.628,11.02 L7.628,11.02 Z" id="形状"></path>
                </g>
            </g>
        </g>
    </g>
</svg>