<!-- Generated by IcoMoon.io -->
<svg version="1.1" xmlns="http://www.w3.org/2000/svg" width="32" height="32" viewBox="0 0 32 32">
<title>warning</title>
<path d="M16 6.4c6.186 0 11.2 5.014 11.2 11.2v11.2h3.2c0.884 0 1.6 0.716 1.6 1.6s-0.716 1.6-1.6 1.6h-28.8c-0.884 0-1.6-0.716-1.6-1.6s0.716-1.6 1.6-1.6h3.2v-11.2c0-6.186 5.014-11.2 11.2-11.2zM16 9.6c-4.302 0-7.811 3.396-7.993 7.653l-0.007 0.347v11.2h6.4v-3.2c0-0.884 0.716-1.6 1.6-1.6s1.6 0.716 1.6 1.6v3.2h6.4v-11.2c0-4.302-3.396-7.811-7.653-7.993l-0.347-0.007zM16 12.8c2.651 0 4.8 2.149 4.8 4.8s-2.149 4.8-4.8 4.8c-2.651 0-4.8-2.149-4.8-4.8s2.149-4.8 4.8-4.8zM16 16c-0.884 0-1.6 0.716-1.6 1.6s0.716 1.6 1.6 1.6c0.884 0 1.6-0.716 1.6-1.6s-0.716-1.6-1.6-1.6zM5.366 5.503l1.131 1.131c0.625 0.625 0.625 1.638 0 2.263s-1.638 0.625-2.263 0l-1.131-1.131c-0.625-0.625-0.625-1.638 0-2.263s1.638-0.625 2.263 0zM26.634 5.503c0.625-0.625 1.638-0.625 2.263 0 0.577 0.577 0.621 1.484 0.133 2.112l-0.133 0.151-1.131 1.131c-0.625 0.625-1.638 0.625-2.263 0-0.577-0.577-0.621-1.484-0.133-2.112l0.133-0.151 1.131-1.131zM16 0c0.884 0 1.6 0.716 1.6 1.6v1.6c0 0.884-0.716 1.6-1.6 1.6s-1.6-0.716-1.6-1.6v-1.6c0-0.884 0.716-1.6 1.6-1.6z"></path>
</svg>
