<?xml version="1.0" encoding="UTF-8"?>
<svg width="20px" height="20px" viewBox="0 0 20 20" version="1.1" xmlns="http://www.w3.org/2000/svg" xmlns:xlink="http://www.w3.org/1999/xlink">
    <title>图标/头像</title>
    <g id="图标/头像" stroke="none" stroke-width="1" fill="none" fill-rule="evenodd">
        <g id="编组" transform="translate(0.000000, -1.000000)" fill-rule="nonzero">
            <path d="M0,11 C0,16.5228475 4.4771525,21 10,21 C15.5228475,21 20,16.5228475 20,11 C20,5.4771525 15.5228475,1 10,1 C4.4771525,1 0,5.4771525 0,11 Z" id="路径"></path>
            <g id="编组-2" transform="translate(0.526334, 0.637800)" fill="#ffffff">
                <path d="M11.8371354,0.364412704 L11.7706485,0.3622 L9.5091285,0.3622 C6.61652967,0.3622 4.63180144,2.71580042 4.63180144,5.68099886 C4.5904291,6.91367352 5.09494541,8.13708978 6.02185115,9.02851411 C6.93925915,9.91080427 8.18983141,10.3907982 9.48308405,10.3608808 C12.3469917,10.3611483 14.3860744,8.507385 14.3860744,5.68099886 L14.3860744,2.90478412 C14.2863167,1.4992717 13.1924436,0.45472282 11.8371354,0.364412704 Z M9.5091285,2.3622 L11.726,2.362 L11.7041616,2.3599873 C12.0809478,2.38509421 12.3653452,2.65666772 12.3887183,2.97745363 L12.3860744,5.68099886 C12.3860744,7.35804868 11.2826956,8.36114825 9.45995674,8.36114825 C8.67289201,8.37908827 7.93891451,8.09737342 7.40820499,7.58697915 C6.88726219,7.08597774 6.60822828,6.4093403 6.63125348,5.71409901 C6.63180144,3.75203168 7.80380929,2.3622 9.5091285,2.3622 Z" id="路径"></path>
                <path d="M13.3380461,11.3690203 L5.33334027,11.3690203 C2.80026903,11.3690203 0.670439676,13.2767042 0.123387184,15.6438531 C-0.480051881,18.2549922 1.09397885,20.3690203 4.18981085,20.3690203 L14.4815756,20.3690203 C17.5774076,20.3690203 19.1514383,18.2549922 18.5479992,15.6438531 C18.0009467,13.2767042 15.8711174,11.3690203 13.3380461,11.3690203 Z M5.33334027,13.3690203 L13.3380461,13.3690203 C14.8878831,13.3690203 16.2519199,14.5907853 16.5993589,16.0941875 C16.9199231,17.4812996 16.2589577,18.3690203 14.4815756,18.3690203 L4.18981085,18.3690203 C2.41242875,18.3690203 1.75146328,17.4812996 2.07202747,16.0941875 C2.41946649,14.5907853 3.78350327,13.3690203 5.33334027,13.3690203 Z" id="路径"></path>
            </g>
        </g>
    </g>
</svg>