<!-- Generated by IcoMoon.io -->
<svg version="1.1" xmlns="http://www.w3.org/2000/svg" width="32" height="32" viewBox="0 0 32 32">
<title>case</title>
<path d="M21.588 10.629c0.356-0.214 0.784-0.275 1.186-0.169s0.744 0.371 0.944 0.728c0.396 0.69 0.205 1.557-0.424 2.024l-0.141 0.094-5.648 3.254 0 6.32c0 0.744-0.523 1.366-1.212 1.519l-0.162 0.027-0.167 0.009c-0.418 0.008-0.822-0.154-1.118-0.45-0.254-0.254-0.409-0.587-0.443-0.931l-0.007-0.173-0-6.286-5.704-3.292c-0.633-0.372-0.906-1.123-0.7-1.793l0.061-0.165 0.075-0.149c0.203-0.363 0.545-0.627 0.947-0.734 0.345-0.091 0.708-0.059 1.021 0.082l0.152 0.080 5.701 3.257 5.639-3.25z"></path>
<path d="M13.512 0.66c1.449-0.828 3.246-0.828 4.697-0.166l0.315 0.166 9.682 5.533c1.476 0.843 2.421 2.367 2.534 4.048l0.011 0.338v10.975c0 1.699-0.854 3.277-2.257 4.208l-0.288 0.178-9.682 5.41c-1.416 0.84-3.639 0.785-4.857 0.16l-0.414-0.206-9.424-5.364c-1.476-0.843-2.421-2.367-2.534-4.048l-0.011-0.338v-10.975c0-1.699 0.854-3.277 2.257-4.208l0.288-0.178 9.682-5.533zM16.853 3.584c-0.453-0.259-0.996-0.291-1.472-0.097l-0.199 0.097-9.682 5.533c-0.466 0.266-0.774 0.737-0.837 1.263l-0.012 0.199v10.975c0 0.537 0.256 1.038 0.681 1.353l0.167 0.109 9.682 5.533c0.453 0.259 0.996 0.291 1.472 0.097l0.199-0.097 9.682-5.533c0.466-0.266 0.774-0.737 0.837-1.263l0.012-0.199v-10.975c0-0.537-0.256-1.038-0.681-1.353l-0.167-0.109-9.682-5.533z"></path>
</svg>
