<!-- Generated by IcoMoon.io -->
<svg version="1.1" xmlns="http://www.w3.org/2000/svg" width="32" height="32" viewBox="0 0 32 32">
<title>dispatch</title>
<path d="M24.779 17.6l6.584 3.494c0.849 0.45 0.849 1.18 0 1.631l-13.827 7.337c-0.849 0.45-2.224 0.45-3.073 0l-13.827-7.337c-0.849-0.45-0.849-1.18 0-1.631l6.583-3.494 3.32 1.761-4.8 2.548 10.259 5.443 10.261-5.443-4.8-2.547 3.32-1.763zM15.92 9.059l6.399 6.398-2.258 2.258-4.141-4.143-4.144 4.143-2.258-2.256 6.401-6.4zM17.536 1.95l13.827 7.605c0.849 0.467 0.849 1.223 0 1.69l-5.736 3.155-3.322-1.827 3.954-2.173-10.259-5.643-10.261 5.643 3.952 2.173-3.32 1.827-5.735-3.155c-0.849-0.467-0.849-1.223 0-1.69l13.827-7.605c0.848-0.467 2.224-0.467 3.073 0z"></path>
</svg>
