<?xml version="1.0" encoding="UTF-8"?>
<svg width="20px" height="20px" viewBox="0 0 20 20" version="1.1" xmlns="http://www.w3.org/2000/svg" xmlns:xlink="http://www.w3.org/1999/xlink">
    <title>图标/下</title>
    <g id="图标/下" stroke="none" stroke-width="1" fill="none" fill-rule="evenodd">
        <rect id="矩形" fill="#FFFFFF" opacity="0" x="0" y="0" width="20" height="20"></rect>
        <path d="M3.31756216,6.31486475 C3.70579125,5.93003006 4.31890877,5.8979605 4.74704624,6.22109444 L4.85891678,6.3180304 L9.99464974,11.547228 L15.1442002,6.31486475 C15.4936064,5.96851352 16.0251722,5.90790206 16.4383342,6.13303036 L16.5712573,6.21865608 L16.682404,6.31486475 C17.0673278,6.69642309 17.1023209,7.29704921 16.7875868,7.71823599 L16.682675,7.83881034 L10.8957513,13.5883544 C10.6299817,13.8518003 10.3423713,14.0144159 10.0387299,13.9989914 L9.97731645,13.9909085 L9.91357043,13.9969036 C9.72615104,14.0028443 9.56625941,13.9427317 9.37621222,13.8121664 L9.22712137,13.7009638 L9.09033922,13.5878156 L3.31756216,7.83907928 C2.89414595,7.41936511 2.89414595,6.73457892 3.31756216,6.31486475 Z" id="路径" fill-opacity="0.65" fill="#000000"></path>
    </g>
</svg>