<?xml version="1.0" encoding="UTF-8"?>
<svg width="20px" height="20px" viewBox="0 0 20 20" version="1.1" xmlns="http://www.w3.org/2000/svg" xmlns:xlink="http://www.w3.org/1999/xlink">
    <title>图标/excle</title>
    <g id="图标/excle" stroke="none" stroke-width="1" fill="none" fill-rule="evenodd">
        <path d="M12.6726429,0.286177073 L17.7003262,4.19989122 C17.8920057,4.38794645 18,4.64518896 18,4.91371414 L18,18 C18,19.1045695 17.1045695,20 16,20 L4,20 C2.8954305,20 2,19.1045695 2,18 L2,2 C2,0.8954305 2.8954305,0 4,0 L11.9723167,0 C12.2342276,0 12.4856849,0.102753977 12.6726429,0.286177073 Z M16,5.418 L11.556,2 L4,2 L4,18 L16,18 L16,5.418 Z" id="路径" fill="#5B5D66" fill-rule="nonzero"></path>
        <path d="M8.78726601,10.6291762 L7.23822221,6.26367188 L9.62286132,6.26367188 L10.0614795,7.87201559 C10.1780742,8.29791845 10.300221,8.7658512 10.4501284,9.34586366 L10.4973215,9.34586366 C10.8026886,8.7658512 11.0747429,8.29231447 11.3329168,7.87201559 L12.2601223,6.26367188 L14.5253906,6.26367188 L11.4439594,10.727246 L13.1095979,15.2636719 L10.7249588,15.2636719 L10.2030587,13.5068226 C10.0698077,13.0332858 9.95043689,12.5653531 9.80608156,12.0077566 L9.75888847,12.0077566 C9.44796928,12.5653531 9.17036286,13.0360878 8.88720432,13.5068226 L7.81286749,15.2608699 L5.52539062,15.2608699 L8.78726601,10.6291762 Z" id="路径" fill="#5B5D66" fill-rule="nonzero"></path>
    </g>
</svg>