<?xml version="1.0" encoding="UTF-8"?>
<svg width="20px" height="20px" viewBox="0 0 20 20" version="1.1" xmlns="http://www.w3.org/2000/svg" xmlns:xlink="http://www.w3.org/1999/xlink">
    <title>图标/全屏</title>
    <g id="图标/全屏" stroke="none" stroke-width="1" fill="none" fill-rule="evenodd">
        <rect id="矩形" fill="#5B5D66" x="1" y="1" width="2" height="5" rx="1"></rect>
        <rect id="矩形备份-3" fill="#5B5D66" x="1" y="14" width="2" height="5" rx="1"></rect>
        <rect id="矩形备份" fill="#5B5D66" x="17" y="1" width="2" height="5" rx="1"></rect>
        <rect id="矩形备份-4" fill="#5B5D66" x="17" y="14" width="2" height="5" rx="1"></rect>
        <rect id="矩形" fill="#5B5D66" x="1" y="1" width="5" height="2" rx="1"></rect>
        <rect id="矩形备份-5" fill="#5B5D66" x="1" y="17" width="5" height="2" rx="1"></rect>
        <rect id="矩形备份-2" fill="#5B5D66" x="14" y="1" width="5" height="2" rx="1"></rect>
        <rect id="矩形备份-6" fill="#5B5D66" x="14" y="17" width="5" height="2" rx="1"></rect>
        <path d="M14,5 C14.5522847,5 15,5.44771525 15,6 L15,14 C15,14.5522847 14.5522847,15 14,15 L6,15 C5.44771525,15 5,14.5522847 5,14 L5,6 C5,5.44771525 5.44771525,5 6,5 L14,5 Z M13,7 L7,7 L7,13 L13,13 L13,7 Z" id="矩形" fill="#5B5D66" fill-rule="nonzero"></path>
    </g>
</svg>