<?xml version="1.0" encoding="UTF-8"?>
<svg width="20px" height="20px" viewBox="0 0 20 20" version="1.1" xmlns="http://www.w3.org/2000/svg" xmlns:xlink="http://www.w3.org/1999/xlink">
    <title>图标/帮助</title>
    <g id="图标/帮助" stroke="none" stroke-width="1" fill="none" fill-rule="evenodd">
        <path d="M9.99949929,0 C15.5217243,0 20,4.47720091 20,10.00033 C20,15.5227991 15.5217243,20 9.99949929,20 C4.47711497,20 0,15.5227991 0,10.00033 C0,4.47720091 4.47711497,0 9.99949929,0 Z M9.99949929,2 C5.58161405,2 2,5.58184084 2,10.00033 C2,14.4182408 5.58169569,18 9.99949929,18 C14.4174565,18 18,14.417928 18,10.00033 C18,5.58215371 14.4175381,2 9.99949929,2 Z M10.2085575,14.4044912 C10.8665155,14.4044912 11.3995719,14.9375732 11.3995719,15.5953995 C11.3995719,16.2530427 10.8664894,16.7862032 10.2085575,16.7862032 C9.55080894,16.7862032 9.01772635,16.2530427 9.01772635,15.5953995 C9.01772635,14.9375732 9.55080894,14.4044912 10.2085575,14.4044912 Z M9.89012661,4.12990977 C10.3912509,4.12409919 10.8460999,4.18670693 11.2549353,4.31783774 C11.6633519,4.44907322 12.0198396,4.62216063 12.3241628,4.83683823 C12.6284599,5.05162053 12.8758812,5.26640279 13.0669764,5.48115892 C13.257679,5.69594121 13.4293532,6.00319556 13.5815803,6.40286965 C13.7336765,6.80254374 13.8006292,7.23503976 13.7829356,7.70035776 C13.7589604,8.1716433 13.6514121,8.57731116 13.4605263,8.91741365 C13.2696666,9.25741146 12.9266846,9.61845298 12.4315017,10.0001457 L11.8835334,10.4279528 L11.8835334,10.4279528 L11.6199276,10.6420381 L11.6199276,10.6420381 L11.5143442,10.7339284 L11.5143442,10.7339284 C11.39808,10.8413457 11.3086178,10.9725812 11.2458006,11.1276872 C11.183376,11.2828979 11.1517842,11.5005331 11.1517842,11.7809332 L11.1517842,12.9531272 C11.1517842,13.1321038 11.0878415,13.2887278 10.9595635,13.422921 C10.8312855,13.5570879 10.5941244,13.6347456 10.2481324,13.65558 C9.9021142,13.6765452 9.64406631,13.6122885 9.47411957,13.4632548 C9.30396342,13.3141426 9.21889845,13.0933927 9.21889845,12.8009265 L9.21889845,11.7451536 C9.21889845,11.0828515 9.30854386,10.59382 9.48762527,10.2776142 C9.66652347,9.96140843 9.83783125,9.73474323 10.0020459,9.59751395 L10.2317898,9.40773288 L10.2317898,9.40773288 L10.6999452,9.02922819 L10.6999452,9.02922819 C11.0012322,8.78761774 11.2638605,8.52517295 11.4874898,8.24178912 C11.7111191,7.95848381 11.8110247,7.66769277 11.7872588,7.36928516 C11.7514792,7.04127498 11.5575572,6.75341541 11.2056238,6.50570647 C10.8535333,6.25818074 10.4658464,6.12260041 10.0422228,6.09862521 C9.54698753,6.07483322 9.13857095,6.16133767 8.81616159,6.35811237 C8.49414484,6.55499176 8.26462644,6.76529835 8.12742317,6.9890059 C8.01749304,7.16797194 7.93057915,7.37655418 7.86669488,7.61467219 L7.82309994,7.79879739 C7.75722038,8.11510788 7.68872345,8.33122505 7.61716418,8.44751527 C7.5456049,8.56388402 7.43522983,8.6488704 7.28601276,8.70263141 C7.13700509,8.75628773 6.99676565,8.78314205 6.86560854,8.78314205 C6.63875987,8.78913585 6.43303348,8.73843719 6.24803679,8.63107222 C6.0630139,8.52373342 5.94389677,8.35663983 5.89021423,8.12994846 C5.83653168,7.90325709 5.83956786,7.62589322 5.89916569,7.29769983 C5.99451697,6.80256988 6.11687969,6.40433535 6.26612292,6.10304861 C6.41513059,5.80186659 6.61651211,5.52002699 6.87000576,5.25747751 C7.12349941,4.99492803 7.42190734,4.78320808 7.76483699,4.62218679 C8.10781898,4.46098229 8.45378481,4.34024252 8.80283913,4.25962719 C9.15189344,4.17911655 9.51427027,4.1359036 9.89012661,4.12990977 Z" id="形状" fill="#5B5D66" fill-rule="nonzero"></path>
    </g>
</svg>