<!-- Generated by IcoMoon.io -->
<svg version="1.1" xmlns="http://www.w3.org/2000/svg" width="32" height="32" viewBox="0 0 32 32">
<title>layout</title>
<path d="M13.689 1.6c0.295 0 0.533 0.239 0.533 0.533v13.333c0 0.295-0.239 0.533-0.533 0.533h-11.556c-0.295 0-0.533-0.239-0.533-0.533v-13.333c0-0.295 0.239-0.533 0.533-0.533h11.556zM10.667 5.156h-5.511v7.289h5.511v-7.289zM29.867 16c0.295 0 0.533 0.239 0.533 0.533v13.333c0 0.295-0.239 0.533-0.533 0.533h-11.556c-0.295 0-0.533-0.239-0.533-0.533v-13.333c0-0.295 0.239-0.533 0.533-0.533h11.556zM26.844 19.556h-5.511v7.289h5.511v-7.289zM14.222 20.089v9.778c0 0.295-0.239 0.533-0.533 0.533h-11.556c-0.295 0-0.533-0.239-0.533-0.533v-9.778c0-0.295 0.239-0.533 0.533-0.533h11.556c0.295 0 0.533 0.239 0.533 0.533zM10.667 23.111h-5.511v3.733h5.511v-3.733zM29.867 1.6c0.295 0 0.533 0.239 0.533 0.533v9.778c0 0.295-0.239 0.533-0.533 0.533h-11.556c-0.295 0-0.533-0.239-0.533-0.533v-9.778c0-0.295 0.239-0.533 0.533-0.533h11.556zM26.844 5.156h-5.511v3.733h5.511v-3.733z"></path>
</svg>
