<?xml version="1.0" encoding="UTF-8"?>
<svg width="20px" height="20px" viewBox="0 0 20 20" version="1.1" xmlns="http://www.w3.org/2000/svg" xmlns:xlink="http://www.w3.org/1999/xlink">
    <title>图标/license</title>
    <g id="图标/license" stroke="none" stroke-width="1" fill="none" fill-rule="evenodd">
        <rect id="矩形" fill="#FFFFFF" opacity="0" x="0" y="0" width="20" height="20"></rect>
        <path d="M7.47025926,0 C10.4311192,0 12.8313704,2.4002512 12.8313704,5.36111111 C12.8313704,6.28614739 12.5970886,7.15646422 12.1846242,7.91596249 L5.2075,20 L2,20 L9.7542053,6.569362 C9.94533527,6.20881967 10.0535926,5.79760782 10.0535926,5.36111111 C10.0535926,3.93437551 8.89699486,2.77777778 7.47025926,2.77777778 C6.04352366,2.77777778 4.88692593,3.93437551 4.88692593,5.36111111 C4.88692593,6.58175594 5.73351755,7.6046687 6.87156847,7.87471706 L7.04557631,7.90931893 L7.24297145,7.91463412 C7.44751645,7.91605067 7.6121846,8.0830155 7.61076805,8.2875605 C7.61032383,8.35170332 7.59322851,8.41463118 7.56115617,8.47018173 L6.47173632,10.3570996 C6.38778099,10.5025135 6.21650481,10.5732553 6.05440464,10.5294693 L5.82577019,10.4641134 L5.70866826,10.4260862 L5.70866826,10.4260862 C3.61314497,9.69735203 2.10914815,7.70487021 2.10914815,5.36111111 C2.10914815,2.4002512 4.50939935,0 7.47025926,0 Z" id="路径" fill="#4B6EEF"></path>
        <path d="M15.5991647,17.2182465 C15.8037146,17.2182465 15.969535,17.3840669 15.969535,17.5886168 C15.969535,17.6536307 15.9524215,17.7174992 15.9199144,17.7738027 L14.7438243,19.8108398 C14.6776639,19.9254324 14.5553948,19.9960242 14.4230745,19.9960242 L6.97292793,19.9960242 C6.76837802,19.9960242 6.60255756,19.8302038 6.60255756,19.6256539 C6.60255756,19.56064 6.61967114,19.4967715 6.6521782,19.4404679 L7.82826833,17.4034309 C7.89442873,17.2888383 8.01669777,17.2182465 8.14901805,17.2182465 L15.5991647,17.2182465 Z" id="路径" fill="#42B5E8"></path>
        <path d="M17.8444091,13.3293576 C18.048959,13.3293576 18.2147795,13.495178 18.2147795,13.6997279 C18.2147795,13.7647412 18.1976662,13.828609 18.1651598,13.8849123 L16.9890832,15.9219493 C16.9229231,16.0365428 16.8006535,16.1071353 16.6683326,16.1071353 L9.21818348,16.1071353 C9.01363358,16.1071353 8.84781311,15.9413149 8.84781311,15.736765 C8.84781311,15.6717517 8.86492637,15.6078839 8.89743283,15.5515807 L10.0735094,13.5145436 C10.1396695,13.3999501 10.2619391,13.3293576 10.39426,13.3293576 L17.8444091,13.3293576 Z" id="路径" fill="#F29D2C"></path>
    </g>
</svg>