<?xml version="1.0" encoding="UTF-8"?>
<svg width="20px" height="20px" viewBox="0 0 20 20" version="1.1" xmlns="http://www.w3.org/2000/svg" xmlns:xlink="http://www.w3.org/1999/xlink">
    <title>图标/导航收起</title>
    <g id="图标/导航收起" stroke="none" stroke-width="1" fill="none" fill-rule="evenodd">
        <rect id="矩形" x="0" y="0" width="20" height="20"></rect>
        <rect id="矩形" fill="#5B5D66" x="1" y="2" width="18" height="2" rx="1"></rect>
        <rect id="矩形备份-3" fill="#5B5D66" x="1" y="16" width="18" height="2" rx="1"></rect>
        <rect id="矩形备份-2" fill="#5B5D66" x="9" y="9" width="10" height="2" rx="1"></rect>
        <path d="M5.53887912,5.80148331 C5.9359688,5.41763669 6.56904276,5.42837232 6.95288938,5.825462 C7.30720933,6.19200633 7.3253172,6.75962601 7.01368467,7.14668897 L6.92891069,7.23947226 L3.754,10.307 L6.85056516,12.7332562 C7.25189174,13.0476355 7.34782582,13.6073825 7.0923367,14.0335959 L7.02111647,14.137148 C6.70673716,14.5384746 6.14699021,14.6344087 5.72077678,14.3789196 L5.61722464,14.3076994 L1.61722464,11.1742981 C1.17129655,10.8249802 1.10939162,10.1830917 1.45790593,9.75610498 L1.53887912,9.66808207 L5.53887912,5.80148331 Z" id="路径-4" fill="#5B5D66" fill-rule="nonzero"></path>
    </g>
</svg>