<?xml version="1.0" encoding="UTF-8"?>
<svg width="80px" height="80px" viewBox="0 0 80 80" version="1.1" xmlns="http://www.w3.org/2000/svg" xmlns:xlink="http://www.w3.org/1999/xlink">
    <title>图标/暂无数据1</title>
    <defs>
        <linearGradient x1="50%" y1="0%" x2="50%" y2="100%" id="linearGradient-1">
            <stop stop-color="#87A2DE" stop-opacity="0" offset="0%"></stop>
            <stop stop-color="#87A2DE" stop-opacity="0.2" offset="100%"></stop>
        </linearGradient>
    </defs>
    <g id="图标/暂无数据1" stroke="none" stroke-width="1" fill="none" fill-rule="evenodd">
        <rect id="矩形" x="0" y="0" width="80" height="80"></rect>
        <path d="M0,61 C0,64.2153903 7.62395667,67.1865335 20,68.7942286 C32.376043,70.4019238 47.623957,70.4019238 60,68.7942286 C72.3760433,67.1865335 80,64.2153903 80,61 C80,57.7846097 72.3760433,54.8134665 60,53.2057714 C47.623957,51.5980762 32.376043,51.5980762 20,53.2057714 C7.62395667,54.8134665 0,57.7846097 0,61 L0,61 Z" id="路径" fill="url(#linearGradient-1)" fill-rule="nonzero"></path>
        <path d="M55.0297744,18 C55.879256,18 56.6889143,18.3601376 57.2577781,18.9910203 L70,33 L70,57 C70,60.2383969 67.4344251,62.8775718 64.2249383,62.9958615 L64,63 L16,63 C12.7616031,63 10.1224282,60.4344251 10.0041385,57.2249383 L10,57 L10,33 L22.7422219,18.9910203 C23.3110857,18.3601376 24.120744,18 24.9702256,18 L55.0297744,18 Z M25,35 L12,35 L12,57 C12,59.1421954 13.6839685,60.8910789 15.8003597,60.9951047 L16,61 L64,61 C66.1421954,61 67.8910789,59.3160315 67.9951047,57.1996403 L68,57 L68,35 L56,35 C54.4023191,35 53.0963391,36.24892 53.0050927,37.8237272 L53,38 L53,39 C53,41.1421954 51.3160315,42.8910789 49.1996403,42.9951047 L49,43 L32,43 C29.8578046,43 28.1089211,41.3160315 28.0048953,39.1996403 L28,39 L28,38 C28,36.4023191 26.75108,35.0963391 25.1762728,35.0050927 L25,35 Z M55.0297744,20 L24.9702256,20 C24.6870651,20 24.417179,20.1200459 24.2275577,20.3303401 L12.712,33 L25,33 C27.6887547,33 29.8818181,35.1223067 29.9953805,37.7831104 L30,38 L30,39 C30,40.0543618 30.8158778,40.9181651 31.8507377,40.9945143 L32,41 L49,41 C50.0543618,41 50.9181651,40.1841222 50.9945143,39.1492623 L51,39 L51,38 C51,35.3112453 53.1223067,33.1181819 55.7831104,33.0046195 L56,33 L67.288,33 L55.7724423,20.3303401 C55.582821,20.1200459 55.3129349,20 55.0297744,20 Z" id="形状" fill-opacity="0.6" fill="#87A2DE" fill-rule="nonzero"></path>
        <path d="M68,35 L68,57 C68,59.209139 66.209139,61 64,61 L16,61 C13.790861,61 12,59.209139 12,57 L12,35 L25,35 C26.6568542,35 28,36.3431458 28,38 L28,39 C28,41.209139 29.790861,43 32,43 L49,43 C51.209139,43 53,41.209139 53,39 L53,38 C53,36.3431458 54.3431458,35 56,35 L68,35 Z" id="路径备份" fill-opacity="0.1" fill="#87A2DE"></path>
    </g>
</svg>