<?xml version="1.0" encoding="UTF-8"?>
<svg width="20px" height="20px" viewBox="0 0 20 20" version="1.1" xmlns="http://www.w3.org/2000/svg" xmlns:xlink="http://www.w3.org/1999/xlink">
    <title>图标/刷新</title>
    <g id="图标/刷新" stroke="none" stroke-width="1" fill="none" fill-rule="evenodd">
        <path d="M1.47766082,7.5845248 L1.69103464,7.68867315 L5.85476924,9.8702942 C6.34397067,10.1266151 6.53275766,10.7309803 6.27643677,11.2201818 C6.02011588,11.7093832 5.41575062,11.8981702 4.92654918,11.6418493 L2.001,10.109 L2.00380682,10.2491793 C2.1329254,14.4694126 5.53058744,17.8670746 9.75082067,17.9961932 L10,18 C12.7352821,18 15.2335606,16.6176671 16.7025455,14.3694955 C17.0046428,13.9071583 17.6243393,13.7772581 18.0866766,14.0793553 C18.5490138,14.3814526 18.678914,15.0011491 18.3768167,15.4634864 C16.542259,18.2711398 13.4177046,20 10,20 C4.4771525,20 0,15.5228475 0,10 C0,9.445315 0.0452579342,8.89593272 0.134685242,8.35575633 C0.239403073,7.72321912 0.89753118,7.36132677 1.47766082,7.5845248 Z M10,0 C15.5228475,0 20,4.4771525 20,10 C20,10.519842 19.9602494,11.0350571 19.8816281,11.542443 C19.7775214,12.2143 19.0477703,12.5886526 18.4413383,12.2812926 L14.1593921,10.111059 C13.6667675,9.86138037 13.4698209,9.25962468 13.7194995,8.76700005 C13.9691782,8.27437543 14.5709339,8.0774288 15.0635585,8.32710744 L17.997,9.813 L17.9961932,9.75082067 C17.8670746,5.53058744 14.4694126,2.1329254 10.2491793,2.00380682 L10,2 C7.18073417,2 4.61607494,3.46923651 3.17092169,5.8305486 C2.8826236,6.30161404 2.26703782,6.44977626 1.79597238,6.16147817 C1.32490693,5.87318008 1.17674471,5.25759431 1.4650428,4.78652886 C3.26998429,1.8373398 6.47719459,0 10,0 Z" id="形状" fill="#5B5D66" fill-rule="nonzero"></path>
    </g>
</svg>