<?xml version="1.0" encoding="UTF-8"?>
<svg width="20px" height="20px" viewBox="0 0 20 20" version="1.1" xmlns="http://www.w3.org/2000/svg" xmlns:xlink="http://www.w3.org/1999/xlink">
    <title>图标/查询</title>
    <g id="图标/查询" stroke="none" stroke-width="1" fill="none" fill-rule="evenodd">
        <path d="M9.5,1 C14.1944204,1 18,4.80557963 18,9.5 C18,11.4869834 17.3182183,13.3147282 16.175829,14.7620601 L18.8284271,17.4142136 C19.2189514,17.8047379 19.2189514,18.4379028 18.8284271,18.8284271 C18.4379028,19.2189514 17.8047379,19.2189514 17.4142136,18.8284271 L14.7620601,16.175829 C13.3147282,17.3182183 11.4869834,18 9.5,18 C4.80557963,18 1,14.1944204 1,9.5 C1,4.80557963 4.80557963,1 9.5,1 Z M9.5,3 C5.91014913,3 3,5.91014913 3,9.5 C3,13.0898509 5.91014913,16 9.5,16 C13.0898509,16 16,13.0898509 16,9.5 C16,5.91014913 13.0898509,3 9.5,3 Z" id="形状结合" fill="#5B5D66" fill-rule="nonzero"></path>
    </g>
</svg>