<!-- Generated by IcoMoon.io -->
<svg version="1.1" xmlns="http://www.w3.org/2000/svg" width="32" height="32" viewBox="0 0 32 32">
<title>settings</title>
<path d="M13.737 1.6c1.184-1.184 3.065-1.246 4.322-0.187l0.204 0.187 2.72 2.718 3.498 0.001c1.457 0 2.702 0.979 3.087 2.402l0.059 0.256 0.040 0.264 0.013 0.279-0.001 3.494 2.722 2.723c1.118 1.118 1.236 2.858 0.353 4.107l-0.166 0.215-0.187 0.204-2.722 2.721 0.001 3.494c0.002 1.458-0.976 2.703-2.4 3.089l-0.256 0.059-0.264 0.040-0.279 0.014-3.497-0.002-2.721 2.722c-1.118 1.118-2.858 1.236-4.107 0.353l-0.215-0.166-0.204-0.187-2.723-2.722-3.494 0.001c-1.457 0-2.702-0.978-3.088-2.401l-0.059-0.256-0.040-0.264-0.013-0.279-0.001-3.498-2.718-2.72c-1.118-1.118-1.236-2.858-0.353-4.107l0.166-0.215 0.187-0.204 2.718-2.721 0.001-3.498c0.002-1.601 1.179-2.927 2.716-3.162l0.246-0.028 0.239-0.009 3.496-0.001 2.721-2.718zM16 3.863l-3.656 3.656-4.822 0.001-0.003 4.825-3.656 3.656 3.656 3.656 0.001 4.824 4.821-0.001 3.659 3.659 3.659-3.659h4.82v-4.82l3.659-3.659-3.659-3.659 0.004-4.729-0.004-0.093h-4.823l-3.656-3.656zM16 9.6c3.535 0 6.4 2.865 6.4 6.4s-2.865 6.4-6.4 6.4c-3.535 0-6.4-2.865-6.4-6.4s2.865-6.4 6.4-6.4zM16 12.8c-1.767 0-3.2 1.433-3.2 3.2s1.433 3.2 3.2 3.2c1.767 0 3.2-1.433 3.2-3.2s-1.433-3.2-3.2-3.2z"></path>
</svg>
