<!-- Generated by IcoMoon.io -->
<svg version="1.1" xmlns="http://www.w3.org/2000/svg" width="32" height="32" viewBox="0 0 32 32">
<title>task</title>
<path d="M24 28.8c0.884 0 1.6 0.716 1.6 1.6s-0.716 1.6-1.6 1.6h-16c-0.884 0-1.6-0.716-1.6-1.6s0.716-1.6 1.6-1.6h16zM27.2 1.6c2.651 0 4.8 2.149 4.8 4.8v14.4c0 2.651-2.149 4.8-4.8 4.8h-22.4c-2.651 0-4.8-2.149-4.8-4.8v-14.4c0-2.651 2.149-4.8 4.8-4.8h22.4zM27.2 4.8h-22.4c-0.821 0-1.497 0.618-1.589 1.413l-0.011 0.187v14.4c0 0.821 0.618 1.497 1.413 1.589l0.187 0.011h22.4c0.821 0 1.497-0.618 1.589-1.413l0.011-0.187v-14.4c0-0.821-0.618-1.497-1.413-1.589l-0.187-0.011zM19.701 8.361c0.447-0.009 0.859 0.22 1.083 0.591l0.075 0.145 1.744 4.063h3.369c0.326-0 0.638 0.127 0.868 0.353s0.36 0.534 0.359 0.854c0.001 0.321-0.129 0.628-0.359 0.855-0.184 0.181-0.421 0.299-0.675 0.339l-0.193 0.015h-4.184c-0.433 0.001-0.829-0.223-1.050-0.58l-0.083-0.161-0.852-1.99-1.628 4.323c-0.157 0.41-0.522 0.702-0.953 0.774l-0.164 0.017h-0.035c-0.427 0-0.819-0.218-1.040-0.567l-0.084-0.158-2.050-4.607-1.857 4.35c-0.175 0.412-0.566 0.695-1.018 0.736-0.395 0.038-0.781-0.115-1.037-0.404l-0.102-0.132-1.474-2.195h-2.334c-0.324 0.004-0.637-0.124-0.868-0.351s-0.36-0.535-0.359-0.856c0-0.32 0.13-0.628 0.36-0.854 0.184-0.181 0.421-0.299 0.675-0.338l0.193-0.015h2.994c0.354-0 0.687 0.15 0.918 0.407l0.106 0.137 0.572 0.857 2.077-4.868c0.191-0.445 0.633-0.736 1.124-0.74 0.429-0.001 0.823 0.217 1.047 0.567l0.085 0.158 1.977 4.445 1.647-4.38c0.175-0.465 0.621-0.778 1.124-0.789z"></path>
</svg>
