<!-- Generated by IcoMoon.io -->
<svg version="1.1" xmlns="http://www.w3.org/2000/svg" width="512" height="512" viewBox="0 0 512 512">
<title>list</title>
<g id="icomoon-ignore">
</g>
<path d="M200 60h280v56h-280v-56zM200 228h280v56h-280v-56zM200 396h280v56h-280v-56zM32 88c0-30.928 25.072-56 56-56s56 25.072 56 56c0 30.928-25.072 56-56 56s-56-25.072-56-56zM32 256c0-30.928 25.072-56 56-56s56 25.072 56 56c0 30.928-25.072 56-56 56s-56-25.072-56-56zM32 424c0-30.928 25.072-56 56-56s56 25.072 56 56c0 30.928-25.072 56-56 56s-56-25.072-56-56z"></path>
</svg>
