<!-- Generated by IcoMoon.io -->
<svg version="1.1" xmlns="http://www.w3.org/2000/svg" width="1131" height="1024" viewBox="0 0 1131 1024">
<title></title>
<g id="icomoon-ignore">
</g>
<path d="M767.748 526.542c-121.861 48.217-206.487 165.016-206.487 301.58 0 61.204 16.998 118.439 46.531 167.24l-0.811-1.445-581.363-1.617c-2.090-16.914-3.283-36.492-3.283-56.349 0-201.868 123.275-374.943 298.651-448.051l3.209-1.186c-53.062-49.354-86.151-119.566-86.151-197.506 0-148.826 120.647-269.474 269.474-269.474s269.474 120.647 269.474 269.474c0 77.94-33.089 148.152-85.985 197.354l-0.165 0.152c26.947 11.048 52.655 24.414 76.962 39.882zM705.554 591.863c24.414-21.558 53.14-38.265 84.776-48.667 17.785 22.205 45.11 36.433 75.776 36.433s57.991-14.228 75.776-36.433c33.26 11.143 61.903 28.108 86.13 49.887l-0.222-0.196c-4.209 10.455-6.65 22.576-6.65 35.269 0 17.854 4.831 34.579 13.257 48.94l-0.247-0.456c15.306 26.57 41.283 43.116 69.416 47.427 3.242 14.904 5.098 32.024 5.098 49.578 0 17.461-1.837 34.492-5.328 50.912l0.284-1.594c-29.881 4.611-54.869 22.321-69.277 46.969l-0.248 0.459c-8.17 13.899-12.996 30.616-12.996 48.46 0 12.783 2.476 24.987 6.976 36.159l-0.232-0.651c-24.738 22.205-54.056 39.343-86.393 49.907-17.896-22.382-45.2-36.595-75.823-36.595-0.021 0-0.043 0-0.064 0h0.003c-30.558 0-57.883 14.174-75.668 36.325-34.703-11.715-64.504-29.841-89.383-53.156l0.133 0.124c3.89-10.080 6.143-21.744 6.143-33.934 0-17.871-4.843-34.611-13.289-48.979l0.247 0.454c-14.552-25.331-38.804-41.499-65.374-46.727-3.054-14.473-4.803-31.103-4.803-48.142 0-19.374 2.261-38.22 6.534-56.289l-0.33 1.653c29.244-4.981 53.612-22.491 67.768-46.7l0.248-0.458c14.605-25.277 16.546-54.38 7.761-79.98zM866.16 870.66c53.577 0 97.011-43.433 97.011-97.011s-43.433-97.011-97.011-97.011v0c-53.577 0-97.011 43.433-97.011 97.011s43.433 97.011 97.011 97.011v0z"></path>
</svg>
